<svg width="35" height="35" viewBox="0 0 35 35" fill="none" xmlns="http://www.w3.org/2000/svg">
<g id="icon/close">
<path id="Vector (Stroke)" fill-rule="evenodd" clip-rule="evenodd" d="M4.80214 4.80214C5.37165 4.23262 6.29502 4.23262 6.86453 4.80214L17.5 15.4376L28.1355 4.80214C28.705 4.23262 29.6283 4.23262 30.1979 4.80214C30.7674 5.37165 30.7674 6.29502 30.1979 6.86453L19.5624 17.5L30.1979 28.1355C30.7674 28.705 30.7674 29.6283 30.1979 30.1979C29.6283 30.7674 28.705 30.7674 28.1355 30.1979L17.5 19.5624L6.86453 30.1979C6.29502 30.7674 5.37165 30.7674 4.80214 30.1979C4.23262 29.6283 4.23262 28.705 4.80214 28.1355L15.4376 17.5L4.80214 6.86453C4.23262 6.29502 4.23262 5.37165 4.80214 4.80214Z" fill="#B85526"/>
</g>
</svg>
