<?xml version="1.0" standalone="no"?>
<!DOCTYPE svg PUBLIC "-//W3C//DTD SVG 20010904//EN"
 "http://www.w3.org/TR/2001/REC-SVG-20010904/DTD/svg10.dtd">
<svg version="1.0" xmlns="http://www.w3.org/2000/svg"
 width="905.000000pt" height="1280.000000pt" viewBox="0 0 905.000000 1280.000000"
 preserveAspectRatio="xMidYMid meet">
<g transform="translate(0.000000,1280.000000) scale(0.100000,-0.100000)"
fill="#FFFFFF" stroke="none">
<path d="M2886 7394 c-11 -28 -6 -113 7 -124 6 -6 39 -27 72 -46 91 -54 141
-99 196 -178 179 -254 229 -537 229 -1292 0 -391 -5 -431 -60 -478 -27 -22
-91 -42 -160 -48 -24 -3 -25 -5 -24 -73 1 -149 67 -285 158 -330 l53 -26 5
-407 c3 -224 2 -411 -2 -416 -5 -5 -31 8 -60 29 -62 45 -124 65 -204 65 -127
0 -245 -50 -330 -140 -106 -111 -148 -245 -149 -470 0 -165 19 -245 93 -390
90 -175 183 -254 369 -314 179 -58 314 -79 471 -74 121 4 145 8 235 39 117 41
193 88 280 175 178 181 306 479 374 874 37 216 61 512 61 777 l0 131 49 17
c63 21 97 47 120 93 23 45 51 167 51 220 0 35 -3 41 -27 47 -74 17 -144 91
-185 194 -23 55 -23 62 -29 676 -4 458 -9 630 -18 659 -10 32 -10 40 1 47 22
15 485 11 495 -3 11 -20 32 -1195 22 -1253 -16 -87 -51 -117 -156 -137 -32 -5
-65 -14 -73 -18 -30 -15 -4 -204 40 -291 25 -47 67 -83 127 -105 26 -9 54 -22
61 -27 20 -15 17 -1429 -3 -1515 -25 -107 -73 -179 -135 -205 -14 -5 -56 -13
-95 -16 l-70 -6 -3 -125 -3 -125 93 -137 c53 -77 102 -139 113 -142 27 -8
1519 -8 1539 0 13 5 16 25 16 115 l0 109 -97 155 c-92 148 -98 155 -129 155
-17 0 -42 9 -55 19 -24 19 -24 20 -30 303 -4 155 -7 511 -8 789 l-1 506 59 22
c103 37 168 140 178 281 l5 65 -60 27 c-72 33 -118 90 -154 188 l-23 65 0 565
c0 492 2 579 18 676 29 182 78 307 156 396 l41 47 -37 68 c-21 37 -63 127 -94
198 l-56 130 -1625 3 c-1476 2 -1626 1 -1632 -14z m3224 -94 c8 -19 42 -91 77
-158 l62 -124 -38 -51 c-69 -93 -106 -189 -136 -357 -37 -211 -45 -1191 -11
-1343 30 -131 97 -227 182 -263 29 -12 34 -19 34 -47 0 -19 -12 -58 -27 -88
-32 -62 -97 -112 -161 -123 -22 -3 -41 -12 -43 -18 -2 -7 -1 -371 2 -808 4
-600 8 -804 18 -834 16 -48 56 -86 91 -86 38 0 48 -12 133 -148 75 -120 77
-125 77 -186 0 -49 -4 -65 -16 -70 -9 -3 -337 -6 -729 -6 -664 0 -714 1 -734
18 -11 9 -52 64 -91 121 l-70 105 0 77 c0 86 3 89 71 89 110 0 187 77 235 236
17 54 19 111 19 679 1 341 -2 694 -5 784 l-5 164 -48 12 c-110 28 -187 124
-187 231 0 39 4 54 14 54 9 0 15 -16 18 -49 11 -112 78 -171 193 -171 109 0
219 78 247 174 6 23 12 95 12 160 1 82 5 121 13 123 24 9 37 -42 36 -152 0
-88 -4 -122 -21 -170 -36 -99 -91 -154 -183 -185 l-54 -19 -5 -798 c-5 -776
-6 -800 -27 -871 -46 -160 -97 -214 -219 -235 -38 -6 -72 -16 -76 -22 -10 -14
-10 -87 0 -103 7 -10 155 -12 708 -10 l699 3 3 61 3 62 -48 6 c-78 12 -120 27
-158 58 -45 38 -70 86 -96 190 -21 79 -22 117 -29 743 -5 363 -8 718 -9 788
-1 93 -4 129 -13 131 -123 35 -183 87 -217 187 -36 104 -39 315 -4 326 8 3 12
-37 15 -134 3 -117 7 -144 25 -178 46 -87 128 -135 233 -135 120 0 190 57 193
157 2 46 2 47 -39 59 -96 28 -149 76 -172 156 -20 70 -29 794 -13 1120 23 460
60 626 178 791 64 91 218 82 -1450 85 -1284 2 -1478 0 -1483 -12 -4 -10 25
-45 79 -98 159 -156 245 -357 294 -685 15 -101 18 -193 18 -648 0 -488 -1
-534 -18 -582 -27 -78 -92 -130 -164 -132 -37 -1 -26 14 26 38 123 55 141 118
141 493 -1 732 -51 1075 -196 1321 -56 97 -156 203 -245 263 -67 45 -76 54
-62 67 3 4 711 6 1572 5 l1566 -3 15 -35z m-1048 -507 c3 -43 5 -195 6 -338 1
-143 5 -406 8 -585 6 -349 -3 -538 -31 -608 -21 -51 -62 -88 -117 -102 -62
-17 -67 3 -7 30 64 31 94 66 115 138 16 53 16 107 5 712 -7 360 -15 658 -18
663 -6 11 -673 9 -673 -2 0 -6 9 -25 19 -43 42 -71 46 -133 46 -753 1 -642 1
-649 59 -763 26 -51 91 -115 145 -145 32 -17 33 -19 26 -65 -10 -66 -46 -133
-83 -155 -17 -10 -53 -24 -79 -30 l-48 -12 -6 -280 c-4 -154 -12 -327 -18
-385 -85 -764 -314 -1183 -706 -1291 -93 -25 -199 -28 -396 -11 -201 17 -301
58 -413 169 -140 139 -211 303 -222 513 -15 271 111 491 310 545 191 52 356
-52 356 -225 0 -31 6 -47 23 -61 33 -27 44 -23 52 19 10 46 18 985 10 1068
l-6 60 -42 11 c-87 24 -159 128 -161 233 -1 44 2 55 17 58 14 3 17 -4 17 -45
0 -65 34 -131 80 -155 45 -23 139 -24 187 -1 25 12 42 30 57 62 19 42 21 62
19 214 -2 166 5 198 29 140 16 -41 13 -226 -6 -312 -24 -111 -59 -163 -124
-187 -1 0 -4 -286 -7 -635 -3 -354 -9 -678 -16 -734 -26 -241 -82 -395 -144
-395 -34 0 -92 61 -101 106 -9 49 1 175 26 308 37 204 24 298 -50 341 -30 17
-52 20 -150 20 -99 0 -121 -3 -156 -22 -113 -60 -174 -198 -174 -394 0 -188
61 -340 190 -470 53 -53 96 -86 145 -110 l69 -34 191 -3 c296 -5 408 28 540
162 228 230 345 791 345 1654 0 184 -2 203 -17 208 -69 22 -102 69 -127 180
-20 92 -31 230 -21 280 11 57 21 21 28 -101 7 -124 36 -221 76 -259 52 -49
172 -49 231 1 40 33 59 71 62 123 3 42 3 42 -42 56 -115 35 -161 88 -179 204
-5 36 -12 283 -15 550 -6 518 -16 715 -45 857 -10 48 -17 91 -14 96 2 4 211 7
463 7 l458 0 4 -77z m-1082 -1818 c24 -29 0 -35 -146 -35 -135 0 -144 1 -144
19 0 11 6 22 13 24 6 3 69 6 138 6 99 1 129 -2 139 -14z m1535 -20 c0 -17 -8
-20 -59 -23 -76 -4 -90 1 -76 28 10 18 19 21 73 18 54 -3 62 -5 62 -23z
m-1521 -161 c14 -38 -10 -44 -166 -44 -155 0 -170 4 -154 45 4 12 32 15 160
15 133 0 155 -2 160 -16z m1641 -4 c4 -6 1 -18 -6 -26 -10 -12 -42 -14 -183
-12 -169 3 -171 3 -174 26 l-3 22 180 0 c114 0 182 -4 186 -10z m-1641 -186
c14 -38 -10 -44 -166 -44 -155 0 -170 4 -154 45 4 12 32 15 160 15 133 0 155
-2 160 -16z m1641 -4 c4 -6 1 -18 -6 -26 -10 -12 -42 -14 -183 -12 -169 3
-171 3 -174 26 l-3 22 180 0 c114 0 182 -4 186 -10z m-1646 -184 c6 -7 8 -21
5 -30 -6 -15 -25 -16 -163 -14 -143 3 -156 4 -159 22 -2 10 2 22 10 27 7 5 77
9 154 9 108 0 144 -3 153 -14z m1641 -11 c25 -30 0 -35 -181 -35 -167 0 -179
1 -179 18 0 10 3 22 7 25 3 4 82 7 173 7 135 0 170 -3 180 -15z m-1642 -179
c2 -10 -2 -22 -10 -27 -7 -5 -77 -9 -154 -9 -113 0 -144 3 -154 15 -7 8 -10
22 -6 30 5 13 29 15 163 13 145 -3 158 -4 161 -22z m1650 2 c-3 -23 -5 -23
-177 -26 -177 -3 -197 1 -184 35 4 10 44 13 185 13 l179 0 -3 -22z m0 -185 l3
-23 -179 0 c-144 0 -181 3 -185 14 -12 31 15 36 188 34 168 -3 170 -3 173 -25z
m-1673 -13 l0 -25 -146 -3 c-124 -2 -148 0 -153 13 -3 8 -3 22 0 30 5 13 29
15 153 13 l146 -3 0 -25z m1673 -172 c-3 -23 -5 -23 -172 -26 -170 -3 -201 3
-189 34 4 11 38 14 185 14 l179 0 -3 -22z m-1673 2 c3 -5 1 -19 -5 -30 -10
-19 -20 -20 -144 -20 -106 0 -136 3 -146 15 -7 8 -10 22 -6 30 4 12 30 15 150
15 84 0 147 -4 151 -10z m-870 -115 c0 -18 -8 -20 -74 -23 -79 -3 -103 7 -81
33 10 12 29 15 84 13 63 -3 71 -5 71 -23z m2543 -77 c-3 -23 -5 -23 -177 -26
-177 -3 -197 1 -184 35 4 10 44 13 185 13 l179 0 -3 -22z m-1703 2 c3 -5 1
-19 -5 -30 -10 -18 -20 -20 -141 -20 -135 0 -151 5 -135 45 4 12 30 15 140 15
77 0 137 -4 141 -10z m-871 -93 c26 -19 10 -44 -32 -51 -115 -19 -180 4 -136
48 19 20 142 22 168 3z m2574 -104 l3 -23 -179 0 c-144 0 -181 3 -185 14 -12
31 15 36 188 34 168 -3 170 -3 173 -25z m-1733 7 c4 -6 1 -17 -5 -25 -10 -12
-41 -15 -141 -15 -129 0 -153 6 -129 35 10 12 41 15 141 15 78 0 130 -4 134
-10z m-847 -104 c5 -26 -15 -36 -75 -36 -67 0 -83 7 -83 36 0 24 1 25 77 22
67 -3 78 -6 81 -22z m776 -65 c15 -23 -26 -32 -140 -29 -104 3 -119 5 -122 21
-3 15 8 17 127 17 71 0 132 -4 135 -9z m1806 -16 c25 -30 0 -35 -186 -35 -175
0 -184 1 -184 19 0 11 6 22 13 24 6 3 87 6 178 6 134 1 169 -2 179 -14z
m-2546 -81 c33 -32 20 -44 -49 -44 -55 0 -66 3 -76 21 -9 17 -8 23 2 30 24 15
106 10 123 -7z m666 -59 c0 -21 -32 -26 -150 -23 -90 3 -105 5 -108 21 -3 15
8 17 127 17 109 0 131 -2 131 -15z m1940 -60 c26 -31 0 -35 -230 -35 -229 0
-249 3 -236 35 8 22 448 22 466 0z m-2053 -91 c14 -37 -17 -41 -269 -36 -199
4 -246 7 -260 20 -10 8 -18 19 -18 24 0 4 122 8 270 8 242 0 271 -2 277 -16z"/>
</g>
</svg>
