<svg width="51" height="58" viewBox="0 0 51 58" fill="none" xmlns="http://www.w3.org/2000/svg">
<g id="mdi_search" clip-path="url(#clip0_20_629)" filter="url(#filter0_d_20_629)">
<path id="Vector" d="M34.8378 34.4072H33.031L32.3907 33.7897C34.6319 31.1825 35.9813 27.7977 35.9813 24.1156C35.9813 15.9052 29.326 9.25 21.1156 9.25C12.9052 9.25 6.25 15.9052 6.25 24.1156C6.25 32.326 12.9052 38.9813 21.1156 38.9813C24.7977 38.9813 28.1825 37.6319 30.7897 35.3907L31.4072 36.031V37.8378L42.8423 49.25L46.25 45.8423L34.8378 34.4072ZM21.1156 34.4072C15.421 34.4072 10.824 29.8103 10.824 24.1156C10.824 18.421 15.421 13.824 21.1156 13.824C26.8103 13.824 31.4072 18.421 31.4072 24.1156C31.4072 29.8103 26.8103 34.4072 21.1156 34.4072Z" fill="#B85526"/>
</g>
<defs>
<filter id="filter0_d_20_629" x="-4" y="0" width="58" height="58" filterUnits="userSpaceOnUse" color-interpolation-filters="sRGB">
<feFlood flood-opacity="0" result="BackgroundImageFix"/>
<feColorMatrix in="SourceAlpha" type="matrix" values="0 0 0 0 0 0 0 0 0 0 0 0 0 0 0 0 0 0 127 0" result="hardAlpha"/>
<feOffset dy="4"/>
<feGaussianBlur stdDeviation="2"/>
<feColorMatrix type="matrix" values="0 0 0 0 0.243137 0 0 0 0 0.0196078 0 0 0 0 0.0156863 0 0 0 0.1 0"/>
<feBlend mode="normal" in2="BackgroundImageFix" result="effect1_dropShadow_20_629"/>
<feBlend mode="normal" in="SourceGraphic" in2="effect1_dropShadow_20_629" result="shape"/>
</filter>
<clipPath id="clip0_20_629">
<rect width="50" height="50" fill="white"/>
</clipPath>
</defs>
</svg>
